<mxfile host="app.diagrams.net" modified="2023-03-17T13:43:17.190Z" agent="5.0 (Windows NT 10.0; Win64; x64) AppleWebKit/537.36 (KHTML, like Gecko) Chrome/111.0.0.0 Safari/537.36 Edg/111.0.1661.41" etag="Uj-NwAl9Pa3Kk2b5xXqz" version="21.0.6" type="github">
  <diagram name="Page-1" id="e7e014a7-5840-1c2e-5031-d8a46d1fe8dd">
    <mxGraphModel dx="794" dy="436" grid="1" gridSize="10" guides="1" tooltips="1" connect="1" arrows="1" fold="1" page="1" pageScale="1" pageWidth="1169" pageHeight="826" background="none" math="0" shadow="0">
      <root>
        <mxCell id="0" />
        <mxCell id="1" parent="0" />
        <mxCell id="4nc6XSrLJfWNg6dMWoH4-100" value="首页" style="shape=umlLifeline;perimeter=lifelinePerimeter;whiteSpace=wrap;html=1;container=1;dropTarget=0;collapsible=0;recursiveResize=0;outlineConnect=0;portConstraint=eastwest;newEdgeStyle={&quot;edgeStyle&quot;:&quot;elbowEdgeStyle&quot;,&quot;elbow&quot;:&quot;vertical&quot;,&quot;curved&quot;:0,&quot;rounded&quot;:0};participant=umlControl;" vertex="1" parent="1">
          <mxGeometry x="60" y="340" width="70" height="940" as="geometry" />
        </mxCell>
        <mxCell id="4nc6XSrLJfWNg6dMWoH4-101" value="MainController" style="shape=umlLifeline;perimeter=lifelinePerimeter;whiteSpace=wrap;html=1;container=1;dropTarget=0;collapsible=0;recursiveResize=0;outlineConnect=0;portConstraint=eastwest;newEdgeStyle={&quot;edgeStyle&quot;:&quot;elbowEdgeStyle&quot;,&quot;elbow&quot;:&quot;vertical&quot;,&quot;curved&quot;:0,&quot;rounded&quot;:0};participant=umlControl;" vertex="1" parent="1">
          <mxGeometry x="470" y="330" width="110" height="1120" as="geometry" />
        </mxCell>
        <mxCell id="4nc6XSrLJfWNg6dMWoH4-102" value="关于我们页面" style="shape=umlLifeline;perimeter=lifelinePerimeter;whiteSpace=wrap;html=1;container=1;dropTarget=0;collapsible=0;recursiveResize=0;outlineConnect=0;portConstraint=eastwest;newEdgeStyle={&quot;edgeStyle&quot;:&quot;elbowEdgeStyle&quot;,&quot;elbow&quot;:&quot;vertical&quot;,&quot;curved&quot;:0,&quot;rounded&quot;:0};participant=umlControl;" vertex="1" parent="1">
          <mxGeometry x="690" y="330" width="100" height="1140" as="geometry" />
        </mxCell>
        <mxCell id="4nc6XSrLJfWNg6dMWoH4-103" value="登录页面" style="shape=umlLifeline;perimeter=lifelinePerimeter;whiteSpace=wrap;html=1;container=1;dropTarget=0;collapsible=0;recursiveResize=0;outlineConnect=0;portConstraint=eastwest;newEdgeStyle={&quot;edgeStyle&quot;:&quot;elbowEdgeStyle&quot;,&quot;elbow&quot;:&quot;vertical&quot;,&quot;curved&quot;:0,&quot;rounded&quot;:0};participant=umlControl;" vertex="1" parent="1">
          <mxGeometry x="890" y="330" width="100" height="1150" as="geometry" />
        </mxCell>
        <mxCell id="4nc6XSrLJfWNg6dMWoH4-121" value="&lt;font style=&quot;font-size: 11px;&quot;&gt;index&lt;span style=&quot;font-family: 宋体; font-size: 11px;&quot;&gt;请求方法、&lt;/span&gt;&lt;span style=&quot;font-family: Calibri, sans-serif; font-size: 11px;&quot; lang=&quot;EN-US&quot;&gt;&amp;nbsp;/studio/main/index.do&lt;/span&gt;&lt;span style=&quot;font-family: 宋体; font-size: 11px;&quot;&gt;（&lt;/span&gt;&lt;span style=&quot;font-family: Calibri, sans-serif; font-size: 11px;&quot; lang=&quot;EN-US&quot;&gt;get&lt;/span&gt;&lt;span style=&quot;font-family: 宋体; font-size: 11px;&quot;&gt;请求）&lt;/span&gt;&lt;/font&gt;&lt;span style=&quot;border-color: var(--border-color); font-family: Calibri, sans-serif;&quot; lang=&quot;EN-US&quot;&gt;&amp;nbsp;&lt;/span&gt;" style="html=1;verticalAlign=bottom;endArrow=block;edgeStyle=elbowEdgeStyle;elbow=vertical;curved=0;rounded=0;" edge="1" parent="1" source="4nc6XSrLJfWNg6dMWoH4-100" target="4nc6XSrLJfWNg6dMWoH4-101">
          <mxGeometry width="80" relative="1" as="geometry">
            <mxPoint x="150" y="400" as="sourcePoint" />
            <mxPoint x="270" y="420" as="targetPoint" />
            <Array as="points">
              <mxPoint x="250" y="420" />
            </Array>
            <mxPoint as="offset" />
          </mxGeometry>
        </mxCell>
        <mxCell id="4nc6XSrLJfWNg6dMWoH4-122" value="返回请求跳转到首页面" style="html=1;verticalAlign=bottom;endArrow=open;dashed=1;endSize=8;edgeStyle=elbowEdgeStyle;elbow=vertical;curved=0;rounded=0;" edge="1" parent="1" source="4nc6XSrLJfWNg6dMWoH4-101" target="4nc6XSrLJfWNg6dMWoH4-100">
          <mxGeometry relative="1" as="geometry">
            <mxPoint x="170" y="450" as="sourcePoint" />
            <mxPoint x="100" y="460" as="targetPoint" />
            <Array as="points">
              <mxPoint x="210" y="450" />
            </Array>
          </mxGeometry>
        </mxCell>
        <mxCell id="4nc6XSrLJfWNg6dMWoH4-123" value="worksList&lt;span style=&quot;font-size:10.5pt;&lt;br/&gt;mso-bidi-font-size:11.0pt;font-family:宋体;mso-ascii-font-family:Calibri;&lt;br/&gt;mso-hansi-font-family:Calibri;mso-bidi-font-family:&amp;quot;Times New Roman&amp;quot;;&lt;br/&gt;mso-font-kerning:1.0pt;mso-ansi-language:EN-US;mso-fareast-language:ZH-CN;&lt;br/&gt;mso-bidi-language:AR-SA&quot;&gt;请求方法、&lt;/span&gt;/studio/works/list?worksStatus=1&amp;amp;num=4" style="html=1;verticalAlign=bottom;endArrow=block;edgeStyle=elbowEdgeStyle;elbow=vertical;curved=0;rounded=0;" edge="1" parent="1" source="4nc6XSrLJfWNg6dMWoH4-100" target="4nc6XSrLJfWNg6dMWoH4-101">
          <mxGeometry width="80" relative="1" as="geometry">
            <mxPoint x="95" y="420" as="sourcePoint" />
            <mxPoint x="525" y="420" as="targetPoint" />
            <Array as="points">
              <mxPoint x="140" y="500" />
              <mxPoint x="250" y="420" />
            </Array>
            <mxPoint as="offset" />
          </mxGeometry>
        </mxCell>
        <mxCell id="4nc6XSrLJfWNg6dMWoH4-124" value="返回按照创建时间排序前4个作品" style="html=1;verticalAlign=bottom;endArrow=open;dashed=1;endSize=8;edgeStyle=elbowEdgeStyle;elbow=vertical;curved=0;rounded=0;" edge="1" parent="1" source="4nc6XSrLJfWNg6dMWoH4-101" target="4nc6XSrLJfWNg6dMWoH4-100">
          <mxGeometry relative="1" as="geometry">
            <mxPoint x="525" y="450" as="sourcePoint" />
            <mxPoint x="95" y="450" as="targetPoint" />
            <Array as="points">
              <mxPoint x="230" y="530" />
              <mxPoint x="170" y="550" />
              <mxPoint x="210" y="450" />
            </Array>
          </mxGeometry>
        </mxCell>
        <mxCell id="4nc6XSrLJfWNg6dMWoH4-125" value="worksList&lt;span style=&quot;font-size:10.5pt;&lt;br/&gt;mso-bidi-font-size:11.0pt;font-family:宋体;mso-ascii-font-family:Calibri;&lt;br/&gt;mso-hansi-font-family:Calibri;mso-bidi-font-family:&amp;quot;Times New Roman&amp;quot;;&lt;br/&gt;mso-font-kerning:1.0pt;mso-ansi-language:EN-US;mso-fareast-language:ZH-CN;&lt;br/&gt;mso-bidi-language:AR-SA&quot;&gt;请求方法、&lt;/span&gt;/studio/works/list?worksStatus=1&amp;amp;num=4" style="html=1;verticalAlign=bottom;endArrow=block;edgeStyle=elbowEdgeStyle;elbow=vertical;curved=0;rounded=0;" edge="1" parent="1">
          <mxGeometry width="80" relative="1" as="geometry">
            <mxPoint x="95" y="500" as="sourcePoint" />
            <mxPoint x="525" y="500" as="targetPoint" />
            <Array as="points">
              <mxPoint x="140" y="500" />
              <mxPoint x="250" y="420" />
            </Array>
            <mxPoint as="offset" />
          </mxGeometry>
        </mxCell>
        <mxCell id="4nc6XSrLJfWNg6dMWoH4-127" value="返回按照创建时间排序前4个新闻" style="html=1;verticalAlign=bottom;endArrow=open;dashed=1;endSize=8;edgeStyle=elbowEdgeStyle;elbow=vertical;curved=0;rounded=0;" edge="1" parent="1" source="4nc6XSrLJfWNg6dMWoH4-101" target="4nc6XSrLJfWNg6dMWoH4-100">
          <mxGeometry relative="1" as="geometry">
            <mxPoint x="525" y="530" as="sourcePoint" />
            <mxPoint x="95" y="530" as="targetPoint" />
            <Array as="points">
              <mxPoint x="200" y="620" />
              <mxPoint x="160" y="630" />
              <mxPoint x="230" y="530" />
              <mxPoint x="170" y="550" />
              <mxPoint x="210" y="450" />
            </Array>
          </mxGeometry>
        </mxCell>
        <mxCell id="4nc6XSrLJfWNg6dMWoH4-128" value="articleList&lt;span style=&quot;font-size:10.5pt;&lt;br/&gt;mso-bidi-font-size:11.0pt;font-family:宋体;mso-ascii-font-family:Calibri;&lt;br/&gt;mso-hansi-font-family:Calibri;mso-bidi-font-family:&amp;quot;Times New Roman&amp;quot;;&lt;br/&gt;mso-font-kerning:1.0pt;mso-ansi-language:EN-US;mso-fareast-language:ZH-CN;&lt;br/&gt;mso-bidi-language:AR-SA&quot;&gt;请求方法、&lt;/span&gt;/studio/article/list?articleStatus=1&amp;amp;num=4" style="html=1;verticalAlign=bottom;endArrow=block;edgeStyle=elbowEdgeStyle;elbow=vertical;curved=0;rounded=0;" edge="1" parent="1" source="4nc6XSrLJfWNg6dMWoH4-100" target="4nc6XSrLJfWNg6dMWoH4-101">
          <mxGeometry width="80" relative="1" as="geometry">
            <mxPoint x="95" y="420" as="sourcePoint" />
            <mxPoint x="525" y="420" as="targetPoint" />
            <Array as="points">
              <mxPoint x="160" y="680" />
              <mxPoint x="250" y="420" />
            </Array>
            <mxPoint as="offset" />
          </mxGeometry>
        </mxCell>
        <mxCell id="4nc6XSrLJfWNg6dMWoH4-129" value="返回按照时间排序前4个文章" style="html=1;verticalAlign=bottom;endArrow=open;dashed=1;endSize=8;edgeStyle=elbowEdgeStyle;elbow=vertical;curved=0;rounded=0;" edge="1" parent="1" source="4nc6XSrLJfWNg6dMWoH4-101" target="4nc6XSrLJfWNg6dMWoH4-100">
          <mxGeometry relative="1" as="geometry">
            <mxPoint x="525" y="620" as="sourcePoint" />
            <mxPoint x="95" y="620" as="targetPoint" />
            <Array as="points">
              <mxPoint x="180" y="710" />
              <mxPoint x="150" y="720" />
              <mxPoint x="200" y="620" />
              <mxPoint x="160" y="630" />
              <mxPoint x="230" y="530" />
              <mxPoint x="170" y="550" />
              <mxPoint x="210" y="450" />
            </Array>
          </mxGeometry>
        </mxCell>
        <mxCell id="4nc6XSrLJfWNg6dMWoH4-133" value="memberList请求方法、&lt;span style=&quot;font-size:10.5pt;mso-bidi-font-size:11.0pt;&lt;br/&gt;font-family:&amp;quot;Calibri&amp;quot;,sans-serif;mso-fareast-font-family:宋体;mso-bidi-font-family:&lt;br/&gt;&amp;quot;Times New Roman&amp;quot;;mso-font-kerning:1.0pt;mso-ansi-language:EN-US;mso-fareast-language:&lt;br/&gt;ZH-CN;mso-bidi-language:AR-SA&quot;&gt;&lt;span lang=&quot;EN-US&quot;&gt;/studio/member?memberStatus=1&lt;/span&gt;&lt;/span&gt;" style="html=1;verticalAlign=bottom;endArrow=block;edgeStyle=elbowEdgeStyle;elbow=vertical;curved=0;rounded=0;" edge="1" parent="1" source="4nc6XSrLJfWNg6dMWoH4-100" target="4nc6XSrLJfWNg6dMWoH4-101">
          <mxGeometry width="80" relative="1" as="geometry">
            <mxPoint x="95" y="420" as="sourcePoint" />
            <mxPoint x="525" y="420" as="targetPoint" />
            <Array as="points">
              <mxPoint x="140" y="760" />
              <mxPoint x="250" y="420" />
            </Array>
            <mxPoint as="offset" />
          </mxGeometry>
        </mxCell>
        <mxCell id="4nc6XSrLJfWNg6dMWoH4-134" value="返回所有启用的成员信息，也就是多个member对象" style="html=1;verticalAlign=bottom;endArrow=open;dashed=1;endSize=8;edgeStyle=elbowEdgeStyle;elbow=vertical;curved=0;rounded=0;" edge="1" parent="1" source="4nc6XSrLJfWNg6dMWoH4-101" target="4nc6XSrLJfWNg6dMWoH4-100">
          <mxGeometry relative="1" as="geometry">
            <mxPoint x="525" y="710" as="sourcePoint" />
            <mxPoint x="95" y="710" as="targetPoint" />
            <Array as="points">
              <mxPoint x="220" y="800" />
              <mxPoint x="180" y="710" />
              <mxPoint x="150" y="720" />
              <mxPoint x="200" y="620" />
              <mxPoint x="160" y="630" />
              <mxPoint x="230" y="530" />
              <mxPoint x="170" y="550" />
              <mxPoint x="210" y="450" />
            </Array>
          </mxGeometry>
        </mxCell>
        <mxCell id="4nc6XSrLJfWNg6dMWoH4-136" value="newsList请求方法、/studio/news/list?newsStatus=1&amp;amp;num=4&amp;nbsp;" style="html=1;verticalAlign=bottom;endArrow=block;edgeStyle=elbowEdgeStyle;elbow=vertical;curved=0;rounded=0;" edge="1" parent="1" source="4nc6XSrLJfWNg6dMWoH4-100" target="4nc6XSrLJfWNg6dMWoH4-101">
          <mxGeometry width="80" relative="1" as="geometry">
            <mxPoint x="95" y="420" as="sourcePoint" />
            <mxPoint x="525" y="420" as="targetPoint" />
            <Array as="points">
              <mxPoint x="150" y="580" />
              <mxPoint x="110" y="570" />
              <mxPoint x="250" y="420" />
            </Array>
            <mxPoint as="offset" />
          </mxGeometry>
        </mxCell>
        <mxCell id="4nc6XSrLJfWNg6dMWoH4-139" value="点击login图片" style="text;html=1;align=center;verticalAlign=middle;resizable=0;points=[];autosize=1;strokeColor=none;fillColor=none;" vertex="1" parent="1">
          <mxGeometry x="120" y="380" width="100" height="30" as="geometry" />
        </mxCell>
        <mxCell id="4nc6XSrLJfWNg6dMWoH4-140" value="点击关于我们：发送&lt;span style=&quot;font-size:10.5pt;mso-bidi-font-size:11.0pt;font-family:&amp;quot;Calibri&amp;quot;,sans-serif;&lt;br/&gt;mso-fareast-font-family:宋体;mso-bidi-font-family:&amp;quot;Times New Roman&amp;quot;;mso-font-kerning:&lt;br/&gt;1.0pt;mso-ansi-language:EN-US;mso-fareast-language:ZH-CN;mso-bidi-language:&lt;br/&gt;AR-SA&quot; lang=&quot;EN-US&quot;&gt;/studio/about&lt;/span&gt;" style="html=1;verticalAlign=bottom;endArrow=block;edgeStyle=elbowEdgeStyle;elbow=vertical;curved=0;rounded=0;" edge="1" parent="1" target="4nc6XSrLJfWNg6dMWoH4-101">
          <mxGeometry width="80" relative="1" as="geometry">
            <mxPoint x="100" y="880" as="sourcePoint" />
            <mxPoint x="180" y="880" as="targetPoint" />
          </mxGeometry>
        </mxCell>
        <mxCell id="4nc6XSrLJfWNg6dMWoH4-143" value="" style="endArrow=block;dashed=1;endFill=0;endSize=12;html=1;rounded=0;" edge="1" parent="1" target="4nc6XSrLJfWNg6dMWoH4-102">
          <mxGeometry width="160" relative="1" as="geometry">
            <mxPoint x="530" y="900" as="sourcePoint" />
            <mxPoint x="690" y="900" as="targetPoint" />
          </mxGeometry>
        </mxCell>
        <mxCell id="4nc6XSrLJfWNg6dMWoH4-144" value="跳转到关于我们页面" style="edgeLabel;html=1;align=center;verticalAlign=middle;resizable=0;points=[];" vertex="1" connectable="0" parent="4nc6XSrLJfWNg6dMWoH4-143">
          <mxGeometry x="0.0839" y="-1" relative="1" as="geometry">
            <mxPoint as="offset" />
          </mxGeometry>
        </mxCell>
        <mxCell id="4nc6XSrLJfWNg6dMWoH4-145" value="点击登录按钮、/studio/login" style="html=1;verticalAlign=bottom;endArrow=block;edgeStyle=elbowEdgeStyle;elbow=vertical;curved=0;rounded=0;" edge="1" parent="1" target="4nc6XSrLJfWNg6dMWoH4-101">
          <mxGeometry width="80" relative="1" as="geometry">
            <mxPoint x="100" y="950" as="sourcePoint" />
            <mxPoint x="180" y="950" as="targetPoint" />
          </mxGeometry>
        </mxCell>
        <mxCell id="4nc6XSrLJfWNg6dMWoH4-146" value="" style="endArrow=block;dashed=1;endFill=0;endSize=12;html=1;rounded=0;" edge="1" parent="1" target="4nc6XSrLJfWNg6dMWoH4-103">
          <mxGeometry width="160" relative="1" as="geometry">
            <mxPoint x="520" y="980" as="sourcePoint" />
            <mxPoint x="1064" y="980" as="targetPoint" />
          </mxGeometry>
        </mxCell>
        <mxCell id="4nc6XSrLJfWNg6dMWoH4-147" value="跳转到登录页面" style="edgeLabel;html=1;align=center;verticalAlign=middle;resizable=0;points=[];" vertex="1" connectable="0" parent="4nc6XSrLJfWNg6dMWoH4-146">
          <mxGeometry x="-0.4142" relative="1" as="geometry">
            <mxPoint as="offset" />
          </mxGeometry>
        </mxCell>
        <mxCell id="4nc6XSrLJfWNg6dMWoH4-148" value="点击更多作品、/studio/works/more" style="html=1;verticalAlign=bottom;endArrow=block;edgeStyle=elbowEdgeStyle;elbow=vertical;curved=0;rounded=0;" edge="1" parent="1" target="4nc6XSrLJfWNg6dMWoH4-101">
          <mxGeometry width="80" relative="1" as="geometry">
            <mxPoint x="100" y="1020" as="sourcePoint" />
            <mxPoint x="180" y="1020" as="targetPoint" />
          </mxGeometry>
        </mxCell>
        <mxCell id="4nc6XSrLJfWNg6dMWoH4-150" value="更多作品页面" style="shape=umlLifeline;perimeter=lifelinePerimeter;whiteSpace=wrap;html=1;container=1;dropTarget=0;collapsible=0;recursiveResize=0;outlineConnect=0;portConstraint=eastwest;newEdgeStyle={&quot;edgeStyle&quot;:&quot;elbowEdgeStyle&quot;,&quot;elbow&quot;:&quot;vertical&quot;,&quot;curved&quot;:0,&quot;rounded&quot;:0};participant=umlControl;" vertex="1" parent="1">
          <mxGeometry x="1089" y="330" width="80" height="1160" as="geometry" />
        </mxCell>
        <mxCell id="4nc6XSrLJfWNg6dMWoH4-151" value="" style="endArrow=block;dashed=1;endFill=0;endSize=12;html=1;rounded=0;" edge="1" parent="1" target="4nc6XSrLJfWNg6dMWoH4-150">
          <mxGeometry width="160" relative="1" as="geometry">
            <mxPoint x="520" y="1050" as="sourcePoint" />
            <mxPoint x="680" y="1050" as="targetPoint" />
          </mxGeometry>
        </mxCell>
        <mxCell id="4nc6XSrLJfWNg6dMWoH4-152" value="跳转到更多作品页面" style="edgeLabel;html=1;align=center;verticalAlign=middle;resizable=0;points=[];" vertex="1" connectable="0" parent="4nc6XSrLJfWNg6dMWoH4-151">
          <mxGeometry x="0.0434" y="-2" relative="1" as="geometry">
            <mxPoint as="offset" />
          </mxGeometry>
        </mxCell>
        <mxCell id="4nc6XSrLJfWNg6dMWoH4-153" value="点击更多新闻、/studio/news/more" style="html=1;verticalAlign=bottom;endArrow=block;edgeStyle=elbowEdgeStyle;elbow=vertical;curved=0;rounded=0;" edge="1" parent="1" target="4nc6XSrLJfWNg6dMWoH4-101">
          <mxGeometry width="80" relative="1" as="geometry">
            <mxPoint x="100" y="1080" as="sourcePoint" />
            <mxPoint x="525" y="1020" as="targetPoint" />
            <Array as="points">
              <mxPoint x="180" y="1080" />
            </Array>
          </mxGeometry>
        </mxCell>
        <mxCell id="4nc6XSrLJfWNg6dMWoH4-154" value="更多新闻页面" style="shape=umlLifeline;perimeter=lifelinePerimeter;whiteSpace=wrap;html=1;container=1;dropTarget=0;collapsible=0;recursiveResize=0;outlineConnect=0;portConstraint=eastwest;newEdgeStyle={&quot;edgeStyle&quot;:&quot;elbowEdgeStyle&quot;,&quot;elbow&quot;:&quot;vertical&quot;,&quot;curved&quot;:0,&quot;rounded&quot;:0};participant=umlControl;" vertex="1" parent="1">
          <mxGeometry x="1270" y="330" width="80" height="1160" as="geometry" />
        </mxCell>
        <mxCell id="4nc6XSrLJfWNg6dMWoH4-155" value="" style="endArrow=block;dashed=1;endFill=0;endSize=12;html=1;rounded=0;" edge="1" parent="1" target="4nc6XSrLJfWNg6dMWoH4-154">
          <mxGeometry width="160" relative="1" as="geometry">
            <mxPoint x="520" y="1120" as="sourcePoint" />
            <mxPoint x="680" y="1120" as="targetPoint" />
          </mxGeometry>
        </mxCell>
        <mxCell id="4nc6XSrLJfWNg6dMWoH4-156" value="跳转到更多新闻页面" style="edgeLabel;html=1;align=center;verticalAlign=middle;resizable=0;points=[];" vertex="1" connectable="0" parent="4nc6XSrLJfWNg6dMWoH4-155">
          <mxGeometry x="0.0992" y="2" relative="1" as="geometry">
            <mxPoint as="offset" />
          </mxGeometry>
        </mxCell>
        <mxCell id="4nc6XSrLJfWNg6dMWoH4-157" value="点击更多文章、studio/article/more" style="html=1;verticalAlign=bottom;endArrow=block;edgeStyle=elbowEdgeStyle;elbow=vertical;curved=0;rounded=0;" edge="1" parent="1" target="4nc6XSrLJfWNg6dMWoH4-101">
          <mxGeometry width="80" relative="1" as="geometry">
            <mxPoint x="100" y="1160" as="sourcePoint" />
            <mxPoint x="180" y="1160" as="targetPoint" />
          </mxGeometry>
        </mxCell>
        <mxCell id="4nc6XSrLJfWNg6dMWoH4-158" value="" style="endArrow=block;dashed=1;endFill=0;endSize=12;html=1;rounded=0;" edge="1" parent="1" target="4nc6XSrLJfWNg6dMWoH4-159">
          <mxGeometry width="160" relative="1" as="geometry">
            <mxPoint x="520" y="1200" as="sourcePoint" />
            <mxPoint x="1376" y="1190" as="targetPoint" />
          </mxGeometry>
        </mxCell>
        <mxCell id="4nc6XSrLJfWNg6dMWoH4-160" value="跳转到更多文章页面" style="edgeLabel;html=1;align=center;verticalAlign=middle;resizable=0;points=[];" vertex="1" connectable="0" parent="4nc6XSrLJfWNg6dMWoH4-158">
          <mxGeometry x="0.0472" y="3" relative="1" as="geometry">
            <mxPoint as="offset" />
          </mxGeometry>
        </mxCell>
        <mxCell id="4nc6XSrLJfWNg6dMWoH4-159" value="更多文章页面" style="shape=umlLifeline;perimeter=lifelinePerimeter;whiteSpace=wrap;html=1;container=1;dropTarget=0;collapsible=0;recursiveResize=0;outlineConnect=0;portConstraint=eastwest;newEdgeStyle={&quot;edgeStyle&quot;:&quot;elbowEdgeStyle&quot;,&quot;elbow&quot;:&quot;vertical&quot;,&quot;curved&quot;:0,&quot;rounded&quot;:0};participant=umlControl;" vertex="1" parent="1">
          <mxGeometry x="1440" y="330" width="100" height="1150" as="geometry" />
        </mxCell>
      </root>
    </mxGraphModel>
  </diagram>
</mxfile>
